<svg width="103" height="32" viewBox="0 0 103 32" fill="none" xmlns="http://www.w3.org/2000/svg">
<g clip-path="url(#clip0_3_1561)">
<path fill-rule="evenodd" clip-rule="evenodd" d="M63.8991 25.025C57.9136 29.5733 49.238 32 41.7684 32C31.2949 32 21.8661 28.0064 14.7328 21.3642C14.1724 20.8418 14.6745 20.13 15.347 20.5368C23.0453 25.1544 32.5638 27.9324 42.3961 27.9324C49.0273 27.9324 56.322 26.518 63.0293 23.5828C64.0426 23.1391 64.89 24.2669 63.8991 25.025Z" fill="#FF9900"/>
<path fill-rule="evenodd" clip-rule="evenodd" d="M66.3877 22.0899C65.6255 21.0822 61.3303 21.6138 59.4024 21.8495C58.815 21.9235 58.7254 21.3965 59.2544 21.0175C62.6753 18.5353 68.2887 19.2518 68.9433 20.0838C69.5979 20.9204 68.7729 26.7214 65.5582 29.4901C65.065 29.9154 64.5943 29.6889 64.814 29.125C65.5358 27.2668 67.1544 23.1021 66.3877 22.0899Z" fill="#FF9900"/>
<path fill-rule="evenodd" clip-rule="evenodd" d="M59.5367 3.49446V1.08164C59.5367 0.716477 59.8057 0.471497 60.1286 0.471497H70.6066C70.9428 0.471497 71.2118 0.7211 71.2118 1.08164V3.14779C71.2074 3.49446 70.9249 3.94744 70.4227 4.66389L64.9932 12.6558C67.0108 12.605 69.1405 12.9146 70.9697 13.9778C71.3822 14.2181 71.4943 14.5694 71.5257 14.9161V17.4907C71.5257 17.842 71.1491 18.2534 70.7545 18.0407C67.5309 16.2982 63.2491 16.1086 59.6847 18.0592C59.3215 18.2626 58.9404 17.8559 58.9404 17.5046V15.0594C58.9404 14.6665 58.9449 13.9963 59.326 13.4L65.6164 4.09998H60.142C59.8057 4.09998 59.5367 3.855 59.5367 3.49446Z" fill="black"/>
<path fill-rule="evenodd" clip-rule="evenodd" d="M21.3146 18.5492H18.1268C17.8219 18.5261 17.5798 18.2903 17.5574 17.9899V1.12324C17.5574 0.785813 17.8309 0.51772 18.1716 0.51772H21.1442C21.4536 0.531577 21.7001 0.776566 21.7226 1.08164V3.28646H21.7809C22.5565 1.15559 24.0136 0.161804 25.9774 0.161804C27.9726 0.161804 29.219 1.15559 30.1157 3.28646C30.8869 1.15559 32.6399 0.161804 34.5185 0.161804C35.8546 0.161804 37.3163 0.730343 38.2085 2.00609C39.2173 3.42513 39.011 5.48666 39.011 7.29397L39.0066 17.939C39.0066 18.2765 38.7331 18.5492 38.3923 18.5492H35.209C34.8907 18.5261 34.6351 18.2626 34.6351 17.939V8.99958C34.6351 8.28775 34.6979 6.5128 34.5454 5.83795C34.3078 4.7055 33.5949 4.38656 32.6713 4.38656C31.9002 4.38656 31.0931 4.91812 30.7658 5.76862C30.4385 6.61911 30.4699 8.04277 30.4699 8.99958V17.939C30.4699 18.2765 30.1964 18.5492 29.8557 18.5492H26.6724C26.3496 18.5261 26.0985 18.2626 26.0985 17.939L26.094 8.99958C26.094 7.11832 26.3944 4.34958 24.1302 4.34958C21.8391 4.34958 21.9288 7.04898 21.9288 8.99958V17.939C21.9288 18.2765 21.6553 18.5492 21.3146 18.5492" fill="black"/>
<path fill-rule="evenodd" clip-rule="evenodd" d="M80.2325 0.161804C84.9626 0.161804 87.5227 4.34958 87.5227 9.67444C87.5227 14.819 84.6936 18.9005 80.2325 18.9005C75.5875 18.9005 73.0588 14.7127 73.0588 9.49417C73.0588 4.24327 75.6189 0.161804 80.2325 0.161804ZM80.2594 3.6054C77.91 3.6054 77.7621 6.90569 77.7621 8.96261C77.7621 11.0241 77.7307 15.4245 80.2325 15.4245C82.7029 15.4245 82.8195 11.8746 82.8195 9.71141C82.8195 8.28776 82.7612 6.58676 82.3442 5.23706C81.9855 4.063 81.2727 3.6054 80.2594 3.6054Z" fill="black"/>
<path fill-rule="evenodd" clip-rule="evenodd" d="M93.6563 18.5492H90.4819C90.1636 18.5261 89.908 18.2626 89.908 17.939L89.9036 1.06777C89.9305 0.758077 90.195 0.51772 90.5178 0.51772H93.4724C93.7504 0.531577 93.9791 0.725722 94.0419 0.989191V3.56842H94.1001C94.9924 1.2619 96.2433 0.161804 98.4447 0.161804C99.8749 0.161804 101.269 0.693366 102.166 2.14938C103 3.49908 103 5.76862 103 7.40027V18.0176C102.964 18.3135 102.7 18.5492 102.386 18.5492H99.1889C98.8975 18.5261 98.6554 18.3042 98.624 18.0176V8.85629C98.624 7.01201 98.8303 4.3126 96.6288 4.3126C95.8532 4.3126 95.1403 4.84879 94.7861 5.6623C94.3378 6.69307 94.2795 7.71921 94.2795 8.85629V17.939C94.275 18.2765 93.997 18.5492 93.6563 18.5492" fill="black"/>
<path fill-rule="evenodd" clip-rule="evenodd" d="M51.184 10.4926C51.184 11.773 51.2154 12.8407 50.5877 13.9778C50.0811 14.9022 49.274 15.4708 48.3818 15.4708C47.1578 15.4708 46.4404 14.5093 46.4404 13.0903C46.4404 10.2892 48.875 9.78076 51.184 9.78076V10.4926ZM54.3987 18.503C54.188 18.6971 53.8831 18.711 53.6455 18.5816C52.5873 17.6756 52.3946 17.255 51.8162 16.3906C50.0676 18.2303 48.8257 18.7803 46.5615 18.7803C43.8759 18.7803 41.791 17.0747 41.791 13.6588C41.791 10.9918 43.1899 9.17524 45.1895 8.28776C46.9202 7.50197 49.3368 7.36331 51.184 7.14606V6.72081C51.184 5.93965 51.2423 5.01519 50.7939 4.34034C50.4084 3.73483 49.6641 3.48522 49.005 3.48522C47.79 3.48522 46.7094 4.12772 46.4449 5.45893C46.3911 5.75476 46.1804 6.04596 45.889 6.05983L42.7998 5.71778C42.5398 5.65769 42.2483 5.44044 42.3246 5.02906C43.033 1.16485 46.4225 3.05176e-05 49.4534 3.05176e-05C51.0047 3.05176e-05 53.0312 0.42528 54.2552 1.63631C55.8065 3.12931 55.6586 5.12151 55.6586 7.28935V12.4108C55.6586 13.95 56.2773 14.6249 56.8601 15.4569C57.0619 15.7527 57.1067 16.1086 56.8467 16.3305C56.1966 16.8898 55.0398 17.9298 54.4032 18.5122L54.3987 18.503" fill="black"/>
<path fill-rule="evenodd" clip-rule="evenodd" d="M9.39298 10.4928C9.39298 11.7731 9.42437 12.8409 8.79667 13.978C8.29003 14.9024 7.48748 15.471 6.59078 15.471C5.36678 15.471 4.6539 14.5095 4.6539 13.0905C4.6539 10.2894 7.08845 9.78094 9.39298 9.78094V10.4928ZM12.6077 18.5032C12.3969 18.6973 12.0921 18.7112 11.8544 18.5817C10.7963 17.6758 10.608 17.2551 10.0252 16.3908C8.27658 18.2304 7.03913 18.7805 4.77047 18.7805C2.08932 18.7805 0 17.0749 0 13.659C0 10.992 1.40334 9.17542 3.39851 8.28794C5.12915 7.50216 7.54577 7.36349 9.39298 7.14624V6.72099C9.39298 5.93983 9.45127 5.01538 9.0074 4.34053C8.61733 3.73501 7.87307 3.4854 7.21847 3.4854C6.00344 3.4854 4.91843 4.1279 4.6539 5.45911C4.60009 5.75494 4.38937 6.04614 4.10242 6.06001L1.00879 5.71796C0.748748 5.65787 0.461802 5.44062 0.533539 5.02925C1.24642 1.16503 4.63148 0.000213623 7.66234 0.000213623C9.21364 0.000213623 11.2402 0.425463 12.4642 1.6365C14.0155 3.12949 13.8675 5.12169 13.8675 7.28953V12.411C13.8675 13.9502 14.4863 14.6251 15.0691 15.4571C15.2754 15.7529 15.3202 16.1088 15.0602 16.3307C14.41 16.89 13.2533 17.93 12.6166 18.5124L12.6077 18.5031" fill="black"/>
</g>
<defs>
<clipPath id="clip0_3_1561">
<rect width="103" height="32" fill="white"/>
</clipPath>
</defs>
</svg>
