<svg width="83" height="78" viewBox="0 0 83 78" fill="none" xmlns="http://www.w3.org/2000/svg">
<circle cx="60.5" cy="22.5" r="22.5" fill="#FF5353"/>
<path d="M38 40V11.5" stroke="black" stroke-width="2" stroke-linecap="round" stroke-linejoin="round"/>
<path d="M62.6818 25.75L13.3184 54.25" stroke="black" stroke-width="2" stroke-linecap="round" stroke-linejoin="round"/>
<path d="M9.97525 45.2103C8.7413 38.5324 9.92852 31.6334 13.3237 25.7521C16.7189 19.8709 22.0996 15.3927 28.4996 13.1218V34.5153L9.97525 45.2103Z" stroke="black" stroke-width="2" stroke-linecap="round" stroke-linejoin="round"/>
<path d="M37.9999 11.5C42.9931 11.5009 47.8985 12.8137 52.2248 15.3068C56.5511 17.8 60.1464 21.386 62.6508 25.7058C65.1552 30.0256 66.4806 34.9276 66.4945 39.9208C66.5084 44.9141 65.2102 49.8233 62.7298 54.157C60.2495 58.4906 56.6741 62.0966 52.3618 64.6137C48.0494 67.1309 43.1514 68.4709 38.1582 68.4995C33.1651 68.5282 28.252 67.2445 23.911 64.777C19.57 62.3096 15.9535 58.7449 13.4236 54.44" stroke="black" stroke-width="2" stroke-linecap="round" stroke-linejoin="round"/>
</svg>
