<svg width="98" height="34" viewBox="0 0 98 34" fill="none" xmlns="http://www.w3.org/2000/svg">
<g clip-path="url(#clip0_3_1553)">
<path fill-rule="evenodd" clip-rule="evenodd" d="M86.3761 15.8409L80.1389 26.6752L74.8174 26.6965L86.3761 6.30391L97.8917 26.6965H92.4859L86.3761 15.8398V15.8409ZM69.5813 21.98H75.5414L72.7742 26.6965H65.0058L65.0269 20.9537V6.42928H69.6034L69.5823 21.98H69.5813ZM53.2353 6.43034C58.9182 6.45159 63.5158 10.9778 63.4947 16.573C63.4736 22.1479 58.8761 26.6752 53.1921 26.6752C47.5302 26.654 42.9326 22.1277 42.9326 16.5315C42.9537 10.9566 47.5513 6.43034 53.2353 6.43034ZM53.2142 21.9598C56.2575 21.9598 58.7043 19.549 58.7043 16.573C58.7264 13.598 56.2575 11.1659 53.2353 11.1659C50.212 11.1447 47.7431 13.5767 47.7431 16.5528C47.722 19.5278 50.191 21.9598 53.2132 21.9598H53.2142ZM34.4614 14.9633C34.3982 14.1239 34.1843 13.0136 33.865 11.9458C33.208 9.74016 32.0658 7.71248 30.5235 6.01384C29.7142 5.13409 28.7996 4.31597 27.436 3.35228C26.3965 2.83505 25.3745 2.28295 24.3716 1.69691C23.712 1.31972 22.9238 0.857531 21.8816 0.522844C20.6459 0.228746 19.3828 0.0674088 18.1133 0.0415315C16.8804 -0.000968479 15.6444 0.105282 14.4526 0.334782C13.1965 0.544094 12.1533 0.878782 10.7697 1.21453C7.63999 2.57666 5.21423 4.63047 3.12778 7.35578C-4.15162 17.6036 2.42597 31.9601 14.5801 33.6569C16.5812 33.93 18.5823 33.8248 20.4759 33.3849L21.8173 33.029C21.8595 33.0077 21.9238 32.9865 21.9659 32.9865L23.4991 32.4C23.5834 32.3575 23.6477 32.3362 23.7331 32.2948L24.3716 32.0015C25.5969 31.3918 26.747 30.6394 27.7985 29.7597C26.8414 30.6365 25.8004 31.4156 24.6909 32.0855L24.7542 32.128C24.9681 32.0642 25.1588 32.0015 25.3717 31.9601C25.3717 31.9601 25.3717 32.2948 25.3295 32.2321C24.9892 32.4839 25.5213 32.2533 26.202 31.8963C26.8838 31.5404 27.5435 31.0995 28.1389 30.5969C29.0124 29.8638 29.7785 29.0669 30.8639 27.7685C31.9703 25.8188 33.355 24.121 33.9936 21.8366C34.2064 21.2288 34.3972 20.517 34.5257 19.7828C34.6522 19.0497 34.7386 18.2953 34.7386 17.5197C34.7175 16.744 34.6321 15.9472 34.4614 14.9633ZM18.7098 32.1907C22.4348 31.6031 25.5635 29.5291 28.1178 26.6997C28.8206 25.6722 29.3739 24.7287 30.0546 23.7023C30.906 21.606 30.8428 19.7413 31.1189 18.4217C31.4603 16.0311 30.651 14.1037 29.9703 12.0499C28.9271 9.66034 27.5435 7.87959 25.1167 6.49622C18.9859 2.68184 10.6422 3.74966 6.6621 9.45103C6.64103 9.45103 6.53354 9.59766 6.32068 9.89091C6.59782 8.71791 7.30068 8.02622 8.00249 7.35472C10.0889 5.63666 12.5158 4.27347 15.2829 3.60409C18.4126 3.26834 21.5191 3.60409 24.3074 4.96622C28.4803 7.35472 31.2475 11.1075 31.9493 15.5487V19.6574C31.0767 26.3852 25.3295 31.499 18.7098 32.1907ZM34.0146 16.8907C33.865 7.04128 24.1377 0.397469 14.6654 1.73941C11.8983 2.43003 8.875 3.81341 6.72533 5.74184C5.6821 6.43247 5.19315 7.71172 4.14993 8.7381C-0.0229741 14.8793 0.702015 22.7387 5.89496 27.5178C6.56108 28.1818 7.27234 28.7981 8.02356 29.3623C3.68206 26.7411 1.72311 22.779 1.04238 17.9606C1.04238 16.2415 1.38275 14.5436 1.74419 12.8255C4.17206 5.30091 11.8129 -0.168843 20.1366 1.21453C21.5202 1.55028 22.9038 1.90622 24.3095 2.24197C26.0545 2.93259 27.7785 3.96003 29.1621 5.32322C30.5456 6.68428 31.5889 8.40341 32.6321 10.1002C33.3339 11.4634 33.6753 13.1815 34.0157 14.5436C34.0789 15.3192 34.0789 16.1161 34.0157 16.8917L34.0146 16.8907Z" fill="black"/>
<path fill-rule="evenodd" clip-rule="evenodd" d="M25.3727 17.0383C25.3727 21.2723 21.8394 24.7095 17.4758 24.7095C13.1132 24.7095 9.57886 21.2723 9.57886 17.0383C9.57886 12.8053 13.1121 9.36807 17.4758 9.36807C21.8394 9.36807 25.3727 12.8053 25.3727 17.0393V17.0383Z" fill="white"/>
<path fill-rule="evenodd" clip-rule="evenodd" d="M25.4157 15.7388C25.3093 15.1523 25.1386 14.6912 24.9689 14.042C24.2871 12.6161 23.2871 11.5058 21.9667 10.5623C17.0288 7.27284 10.2384 10.437 9.51548 16.0544C9.23939 18.2761 10.0266 20.4138 11.4312 22.049C11.0055 21.6081 10.5376 21.148 10.2183 20.6231L10.1762 20.6657C10.2183 20.791 10.389 20.875 10.4312 21.0003C10.4312 21.0003 10.2605 21.0003 10.3037 20.9791C10.1762 20.8335 10.2826 21.0641 10.4733 21.3775C10.6441 21.692 10.8569 21.9863 11.1119 22.2583C11.4744 22.6568 11.8569 23.0127 12.4955 23.4951C13.4334 23.9764 14.2627 24.6054 15.3481 24.8986C15.6463 24.9836 15.9866 25.0665 16.3281 25.1292C16.6895 25.193 17.0299 25.2142 17.4134 25.2142C17.7749 25.2142 18.1584 25.1717 18.6263 25.0867C19.1088 25.0294 19.5857 24.9317 20.0521 24.7945C21.0938 24.4784 22.0534 23.9342 22.8624 23.2008C23.2671 22.8246 23.8424 22.3423 24.2882 21.7133C24.6507 21.0014 24.6928 20.6444 24.8635 20.3299C25.0332 20.0154 25.2461 19.6595 25.3957 19.1771C25.5177 18.6048 25.5889 18.0228 25.6086 17.4378C25.5875 16.8513 25.5453 16.285 25.4168 15.7399L25.4157 15.7388ZM20.3492 11.8416C21.0732 12.2602 21.1796 12.3229 20.796 12.0509C21.3503 12.1763 21.6907 12.4908 22.031 12.8053C22.8614 13.7488 23.5421 14.8591 23.8825 16.1373C24.0743 17.5833 23.9246 19.0294 23.3082 20.3087C22.2017 22.2573 20.4346 23.5567 18.327 23.9127C18.0931 23.9127 17.8381 23.9126 17.6031 23.9339C18.1995 23.8287 18.5831 23.4515 19.6685 23.0531C20.8382 22.6345 22.1585 20.6858 22.7982 19.5532C24.6707 16.472 22.4567 13.6223 20.3492 11.8416ZM16.3481 23.9541C13.113 23.6194 10.6219 20.9578 10.2816 17.8766C10.5787 19.5957 11.6009 20.9153 12.9845 22.0894C13.4745 22.4039 14.1973 22.8438 14.6873 23.1583C15.5177 23.4728 16.0067 23.8085 16.816 23.9551H16.3481V23.9541ZM25.0532 18.359C24.9057 19.0092 24.7561 19.6371 24.6064 20.2874C24.2871 21.0843 23.8193 21.9013 23.1807 22.5505C22.5421 23.2008 21.7328 23.7033 20.9246 24.1857C20.286 24.5204 19.4767 24.6883 18.817 24.8551C18.4335 24.8976 17.9867 24.7297 17.6031 24.7095C22.3292 24.5831 25.5643 20.162 24.8625 15.7813C24.5211 14.5031 23.8403 13.3918 23.01 12.2815C22.6696 11.7991 22.0089 11.5058 21.52 11.0235C18.561 9.15877 14.6452 9.53596 12.4102 11.9882C12.0968 12.3105 11.8049 12.6533 11.5366 13.0146C12.7295 11.254 14.6452 10.0183 16.9435 9.66134C17.7527 9.64009 18.5831 9.78777 19.3914 9.9344C22.9678 11.0235 25.6286 14.5031 25.0532 18.36V18.359Z" fill="#D7DF23"/>
</g>
<defs>
<clipPath id="clip0_3_1553">
<rect width="98" height="34" fill="white"/>
</clipPath>
</defs>
</svg>

