<svg width="90" height="90" viewBox="0 0 90 90" fill="none" xmlns="http://www.w3.org/2000/svg">
<circle cx="64.125" cy="27.375" r="22.875" fill="#F84646"/>
<path d="M30.9375 56.25C41.034 56.25 49.2187 48.0652 49.2187 37.9688C49.2187 27.8723 41.034 19.6875 30.9375 19.6875C20.841 19.6875 12.6562 27.8723 12.6562 37.9688C12.6562 48.0652 20.841 56.25 30.9375 56.25Z" stroke="black" stroke-width="2" stroke-miterlimit="10"/>
<path d="M54.6372 20.3686C57.1517 19.6602 59.7887 19.4988 62.3708 19.8953C64.9529 20.2919 67.42 21.2371 69.606 22.6674C71.792 24.0977 73.6461 25.9799 75.0434 28.1871C76.4407 30.3943 77.3489 32.8753 77.7066 35.4631C78.0643 38.0508 77.8634 40.6851 77.1173 43.1887C76.3712 45.6922 75.0972 48.0068 73.3813 49.9765C71.6653 51.9462 69.5472 53.5254 67.1695 54.6076C64.7919 55.6897 62.21 56.2499 59.5976 56.2502" stroke="black" stroke-width="2" stroke-linecap="round" stroke-linejoin="round"/>
<path d="M5.62354 69.3973C8.47869 65.336 12.2691 62.0213 16.6747 59.7331C21.0804 57.4448 25.9719 56.2502 30.9363 56.25C35.9008 56.2498 40.7924 57.4441 45.1982 59.732C49.604 62.0199 53.3947 65.3343 56.2501 69.3953" stroke="black" stroke-width="2" stroke-linecap="round" stroke-linejoin="round"/>
<path d="M59.5977 56.25C64.5626 56.2464 69.4552 57.4392 73.8614 59.7274C78.2676 62.0156 82.0575 65.3319 84.9103 69.3954" stroke="black" stroke-width="2" stroke-linecap="round" stroke-linejoin="round"/>
</svg>
